<svg version="1.1" id="Layer_1" xmlns="http://www.w3.org/2000/svg" xmlns:xlink="http://www.w3.org/1999/xlink" x="0px" y="0px"
	 width="100%" viewBox="0 0 253 194" enable-background="new 0 0 253 194" xml:space="preserve">
<path fill="#FFFEFE" opacity="1.000000" stroke="none" 
	d="
M161.000000,195.000000 
	C107.333336,195.000000 54.166672,195.000000 1.000007,195.000000 
	C1.000005,130.333344 1.000005,65.666679 1.000002,1.000016 
	C85.333321,1.000010 169.666641,1.000010 253.999969,1.000005 
	C253.999985,65.666649 253.999985,130.333298 254.000000,194.999969 
	C223.166672,195.000000 192.333328,195.000000 161.000000,195.000000 
M21.804869,105.350578 
	C21.209187,105.571960 20.613504,105.793343 19.438339,106.257187 
	C19.364952,106.930344 19.291565,107.603500 19.218178,108.276657 
	C19.474047,108.290558 19.729918,108.304459 19.985786,108.318359 
	C19.985786,107.538681 19.985786,106.759003 20.627663,106.008781 
	C21.053738,106.038864 21.479815,106.068947 21.938988,106.831650 
	C22.295483,107.641594 22.651978,108.451538 23.323231,109.630005 
	C23.877371,109.515083 24.431511,109.400162 25.558371,109.176476 
	C25.746315,109.128387 25.934261,109.080292 26.529959,109.020378 
	C26.529959,109.020378 26.937876,109.017769 27.634613,109.096252 
	C29.119364,108.915871 30.604115,108.735489 32.088863,108.555107 
	C32.002556,108.039894 31.916245,107.524681 31.829935,107.009468 
	C30.564564,107.159042 29.299194,107.308624 28.035713,107.124893 
	C28.041397,106.898071 28.048111,106.671272 27.907976,105.783325 
	C27.262535,105.858849 26.617094,105.934372 26.007603,106.012047 
	C26.007603,106.012047 26.013260,105.976479 25.332895,105.784561 
	C25.101154,105.827240 24.869415,105.869919 24.145912,105.926193 
	C23.818186,105.945137 23.490370,105.946892 22.692575,105.763458 
	C22.692575,105.763458 22.193596,105.769234 21.804869,105.350578 
M247.264145,92.367691 
	C247.239349,93.221741 247.214554,94.075790 246.564819,95.221573 
	C244.706223,97.369133 242.847626,99.516693 240.291153,102.069527 
	C237.248703,102.724960 234.227783,103.517616 231.158035,103.998955 
	C227.784637,104.527916 224.366287,104.770248 220.085297,105.010971 
	C216.221344,105.171394 212.357391,105.331818 208.750641,104.814636 
	C208.496994,104.211853 208.243362,103.609062 207.972229,102.286049 
	C207.678696,101.643494 207.385162,101.000946 207.091629,100.358406 
	C206.731781,101.242889 206.371948,102.127373 205.521072,102.784416 
	C205.320618,102.488556 205.120163,102.192696 204.972427,101.182785 
	C205.161270,99.578041 204.810898,97.024139 205.642868,96.551498 
	C207.887436,95.276344 210.696274,94.104034 213.172577,94.295509 
	C220.370560,94.852074 225.743210,92.590172 229.873352,86.084747 
	C232.208694,85.995346 231.378555,93.462494 235.745209,88.556389 
	C233.944214,86.003349 231.731003,83.656097 230.463791,80.877449 
	C228.726440,77.067879 227.298508,78.139755 225.929199,79.699249 
	C227.086243,82.089348 228.001343,83.979675 228.195099,85.955894 
	C226.344650,87.029060 224.569809,88.271233 222.627975,89.140175 
	C218.595200,90.944786 214.580978,91.504425 211.815125,87.856056 
	C213.914520,86.965561 217.059738,86.581444 217.807709,85.036621 
	C218.501495,83.603729 216.508591,80.964348 215.934814,78.793808 
	C215.468796,77.030853 215.352615,75.175423 214.913193,72.237068 
	C210.992462,74.113487 206.918945,76.063026 202.845428,78.012558 
	C202.965179,78.398750 203.084930,78.784943 203.204681,79.171135 
	C204.962814,79.171135 206.720963,79.171135 207.796097,79.171135 
	C209.046402,82.498154 210.097961,85.296341 210.314453,88.338989 
	C201.482285,86.023621 192.649734,83.692688 183.278809,89.010132 
	C181.874771,89.799377 180.470734,90.588623 179.066696,91.377869 
	C179.170456,91.659134 179.274231,91.940392 179.377991,92.221657 
	C181.008347,91.750732 182.638702,91.279800 185.109222,90.741295 
	C188.884857,90.054733 192.660477,89.368179 196.436111,88.681618 
	C189.538452,95.532272 188.293457,108.307983 175.334381,107.833931 
	C177.493454,108.821510 179.652527,109.809090 183.133759,111.401436 
	C176.866287,114.231476 171.689987,116.568794 166.613434,118.861084 
	C166.639389,118.892487 166.893509,119.492355 167.289658,119.608704 
	C167.844849,119.771767 168.506241,119.581276 169.121323,119.531052 
	C179.029083,118.721977 187.632568,114.941444 195.661072,108.216858 
	C198.017273,108.561600 200.373474,108.906334 202.211273,109.768921 
	C200.870163,110.649361 199.529053,111.529808 198.187927,112.410248 
	C198.342484,112.666336 198.497040,112.922424 198.651596,113.178513 
	C201.375534,112.129242 204.099457,111.079979 206.948288,110.760666 
	C205.970551,113.072578 204.992798,115.384499 204.015045,117.696411 
	C208.874634,115.480232 213.237640,112.901192 215.122330,107.018707 
	C217.071304,106.636986 219.020294,106.255257 221.898163,106.014648 
	C223.693100,106.009239 225.529205,106.247398 227.275177,105.952248 
	C232.294998,105.103638 237.278351,104.039444 242.965271,102.990311 
	C245.269073,100.662323 251.594620,101.510429 249.785263,95.272484 
	C250.027832,95.188667 250.270386,95.104851 251.143173,94.768791 
	C251.034897,93.169945 250.926620,91.571106 250.805405,89.340477 
	C247.197235,88.128555 249.843811,91.307884 248.394638,92.012497 
	C248.212112,92.029510 248.029572,92.046524 247.264145,92.367691 
M71.694031,88.791756 
	C71.151665,87.688446 70.609306,86.585129 70.173080,85.697746 
	C66.198334,88.745056 62.181683,91.824486 58.500381,94.646820 
	C60.511894,94.646820 63.039829,94.646820 65.612953,94.646820 
	C65.910339,92.689140 66.153290,91.089775 66.455170,89.102486 
	C68.260185,89.196930 69.866936,89.281006 71.694031,88.791756 
M133.525192,88.653786 
	C131.968170,88.923889 130.411148,89.193993 128.854111,89.464096 
	C130.242172,88.814545 133.743134,94.110641 133.525192,88.653786 
M92.110542,90.765686 
	C92.170738,91.347137 92.230934,91.928589 92.291130,92.510048 
	C92.488945,92.482773 92.686760,92.455498 92.884575,92.428223 
	C92.763924,91.714401 92.643265,91.000572 92.110542,90.765686 
M68.223686,82.792976 
	C68.358864,82.974327 68.494041,83.155685 68.629219,83.337036 
	C68.598633,83.081726 68.568047,82.826408 68.223686,82.792976 
M100.921669,89.474571 
	C100.647034,89.579704 100.372406,89.684837 100.097771,89.789970 
	C100.362717,89.877037 100.627670,89.964096 100.921669,89.474571 
z"/>
<path fill="#322B66" opacity="1.000000" stroke="none" 
	d="
M194.934097,108.196480 
	C187.632568,114.941444 179.029083,118.721977 169.121323,119.531052 
	C168.506241,119.581276 167.844849,119.771767 167.289658,119.608704 
	C166.893509,119.492355 166.639389,118.892487 166.613434,118.861084 
	C171.689987,116.568794 176.866287,114.231476 183.133759,111.401436 
	C179.652527,109.809090 177.493454,108.821510 175.334381,107.833931 
	C188.293457,108.307983 189.538452,95.532272 196.436111,88.681618 
	C192.660477,89.368179 188.884857,90.054733 184.613708,90.314178 
	C184.077728,89.578369 184.037262,89.269676 183.996796,88.960991 
	C192.649734,83.692688 201.482285,86.023621 210.703705,88.187706 
	C211.092941,88.036423 211.028580,87.987083 211.028580,87.987083 
	C214.580978,91.504425 218.595200,90.944786 222.627975,89.140175 
	C224.569809,88.271233 226.344650,87.029060 228.581024,85.994614 
	C228.966965,86.033333 229.129211,86.087242 229.129211,86.087242 
	C225.743210,92.590172 220.370560,94.852074 213.172577,94.295509 
	C210.696274,94.104034 207.887436,95.276344 205.642868,96.551498 
	C204.810898,97.024139 205.161270,99.578041 204.616623,101.668755 
	C201.151917,104.168648 198.042999,106.182564 194.934097,108.196480 
z"/>
<path fill="#322E69" opacity="1.000000" stroke="none" 
	d="
M211.121231,88.065475 
	C210.097961,85.296341 209.046402,82.498154 207.796097,79.171135 
	C206.720963,79.171135 204.962814,79.171135 203.204681,79.171135 
	C203.084930,78.784943 202.965179,78.398750 202.845428,78.012558 
	C206.918945,76.063026 210.992462,74.113487 214.913193,72.237068 
	C215.352615,75.175423 215.468796,77.030853 215.934814,78.793808 
	C216.508591,80.964348 218.501495,83.603729 217.807709,85.036621 
	C217.059738,86.581444 213.914520,86.965561 211.421844,87.921570 
	C211.028580,87.987083 211.092941,88.036423 211.121231,88.065475 
z"/>
<path fill="#3A336C" opacity="1.000000" stroke="none" 
	d="
M214.245880,107.150070 
	C213.237640,112.901192 208.874634,115.480232 204.015045,117.696411 
	C204.992798,115.384499 205.970551,113.072578 207.068634,110.086563 
	C209.541290,108.658340 211.893585,107.904205 214.245880,107.150070 
z"/>
<path fill="#423F75" opacity="1.000000" stroke="none" 
	d="
M228.941711,85.951668 
	C228.001343,83.979675 227.086243,82.089348 225.929199,79.699249 
	C227.298508,78.139755 228.726440,77.067879 230.463791,80.877449 
	C231.731003,83.656097 233.944214,86.003349 235.745209,88.556389 
	C231.378555,93.462494 232.208694,85.995346 229.501282,86.085999 
	C229.129211,86.087242 228.966965,86.033333 228.941711,85.951668 
z"/>
<path fill="#FCDBDC" opacity="1.000000" stroke="none" 
	d="
M195.297577,108.206665 
	C198.042999,106.182564 201.151917,104.168648 204.590271,102.025780 
	C205.120163,102.192696 205.320618,102.488556 205.759796,102.891502 
	C205.998505,102.998589 205.986618,102.987167 206.063400,103.425064 
	C206.817566,104.409142 207.494949,104.955322 208.096863,105.866318 
	C206.257477,107.237778 204.493576,108.244423 202.729675,109.251068 
	C200.373474,108.906334 198.017273,108.561600 195.297577,108.206665 
z"/>
<path fill="#E92C33" opacity="1.000000" stroke="none" 
	d="
M202.470474,109.509995 
	C204.493576,108.244423 206.257477,107.237778 208.135529,105.845642 
	C208.249695,105.460144 208.347061,105.404846 208.386444,105.422043 
	C208.425812,105.439247 208.493439,105.492241 208.493439,105.492241 
	C212.357391,105.331818 216.221344,105.171394 220.537537,105.258209 
	C220.989761,105.505447 220.969269,105.873535 220.969269,105.873535 
	C219.020294,106.255257 217.071304,106.636986 214.684113,107.084396 
	C211.893585,107.904205 209.541290,108.658340 207.006195,109.721588 
	C204.099457,111.079979 201.375534,112.129242 198.651596,113.178513 
	C198.497040,112.922424 198.342484,112.666336 198.187927,112.410248 
	C199.529053,111.529808 200.870163,110.649361 202.470474,109.509995 
z"/>
<path fill="#F05358" opacity="1.000000" stroke="none" 
	d="
M221.433716,105.944092 
	C220.969269,105.873535 220.989761,105.505447 220.978638,105.321457 
	C224.366287,104.770248 227.784637,104.527916 231.158035,103.998955 
	C234.227783,103.517616 237.248703,102.724960 240.934662,102.011337 
	C241.810791,102.322075 242.043411,102.691017 242.276047,103.059952 
	C237.278351,104.039444 232.294998,105.103638 227.275177,105.952248 
	C225.529205,106.247398 223.693100,106.009239 221.433716,105.944092 
z"/>
<path fill="#FCDBDC" opacity="1.000000" stroke="none" 
	d="
M242.620667,103.025131 
	C242.043411,102.691017 241.810791,102.322075 241.283600,101.808701 
	C242.847626,99.516693 244.706223,97.369133 247.089874,94.985657 
	C247.814621,94.512856 247.982513,94.255257 248.324661,93.986046 
	C248.530685,93.995155 248.941940,93.963913 248.962921,94.304657 
	C248.994904,94.872726 249.005920,95.100052 249.016937,95.327377 
	C251.594620,101.510429 245.269073,100.662323 242.620667,103.025131 
z"/>
<path fill="#E1E6E9" opacity="1.000000" stroke="none" 
	d="
M71.583862,89.078415 
	C69.866936,89.281006 68.260185,89.196930 66.455170,89.102486 
	C66.153290,91.089775 65.910339,92.689140 65.612953,94.646820 
	C63.039829,94.646820 60.511894,94.646820 58.500381,94.646820 
	C62.181683,91.824486 66.198334,88.745056 70.173080,85.697746 
	C70.609306,86.585129 71.151665,87.688446 71.583862,89.078415 
z"/>
<path fill="#F6F8F9" opacity="1.000000" stroke="none" 
	d="
M133.706696,88.885185 
	C133.743134,94.110641 130.242172,88.814545 128.854111,89.464096 
	C130.411148,89.193993 131.968170,88.923889 133.706696,88.885185 
z"/>
<path fill="#F8B1B3" opacity="1.000000" stroke="none" 
	d="
M28.033825,107.458199 
	C29.299194,107.308624 30.564564,107.159042 31.829935,107.009468 
	C31.916245,107.524681 32.002556,108.039894 32.088863,108.555107 
	C30.604115,108.735489 29.119364,108.915871 27.424847,108.771042 
	C27.487995,108.116623 27.760910,107.787407 28.033825,107.458199 
z"/>
<path fill="#38346D" opacity="1.000000" stroke="none" 
	d="
M183.637802,88.985565 
	C184.037262,89.269676 184.077728,89.578369 184.193619,90.347969 
	C182.638702,91.279800 181.008347,91.750732 179.377991,92.221657 
	C179.274231,91.940392 179.170456,91.659134 179.066696,91.377869 
	C180.470734,90.588623 181.874771,89.799377 183.637802,88.985565 
z"/>
<path fill="#F6F8F9" opacity="1.000000" stroke="none" 
	d="
M250.818329,89.972260 
	C250.926620,91.571106 251.034897,93.169945 250.678589,94.533081 
	C250.415451,92.855667 250.616898,91.413963 250.818329,89.972260 
z"/>
<path fill="#F8B1B3" opacity="1.000000" stroke="none" 
	d="
M250.811874,89.656372 
	C250.616898,91.413963 250.415451,92.855667 250.363480,94.659210 
	C250.270386,95.104851 250.027832,95.188667 249.401093,95.299927 
	C249.005920,95.100052 248.994904,94.872726 248.985748,93.977646 
	C248.972183,92.871780 248.956772,92.433662 248.941376,91.995552 
	C249.843811,91.307884 247.197235,88.128555 250.811874,89.656372 
z"/>
<path fill="#FDE4E4" opacity="1.000000" stroke="none" 
	d="
M23.162460,105.931458 
	C23.490370,105.946892 23.818186,105.945137 24.529747,106.323883 
	C24.937605,107.576126 24.961628,108.430679 24.985649,109.285240 
	C24.431511,109.400162 23.877371,109.515083 23.208241,109.028214 
	C23.116318,107.594772 23.139389,106.763115 23.162460,105.931458 
z"/>
<path fill="#FCDBDC" opacity="1.000000" stroke="none" 
	d="
M206.005310,103.005219 
	C206.371948,102.127373 206.731781,101.242889 207.091614,100.358398 
	C207.385162,101.000946 207.678696,101.643494 207.987350,102.641739 
	C208.002472,102.997429 208.012299,102.987572 207.674576,102.993561 
	C206.886780,102.995422 206.436691,102.991295 205.986618,102.987167 
	C205.986618,102.987167 205.998505,102.998589 206.005310,103.005219 
z"/>
<path fill="#F6F8F9" opacity="1.000000" stroke="none" 
	d="
M28.034767,107.291550 
	C27.760910,107.787407 27.487995,108.116623 27.076477,108.731796 
	C26.937876,109.017769 26.529959,109.020378 26.289230,108.645035 
	C26.036755,107.505295 26.025007,106.740883 26.013260,105.976479 
	C26.013260,105.976479 26.007603,106.012047 26.346409,106.031372 
	C27.142096,106.181961 27.598974,106.313225 28.055855,106.444496 
	C28.048111,106.671272 28.041397,106.898071 28.034767,107.291550 
z"/>
<path fill="#E92C33" opacity="1.000000" stroke="none" 
	d="
M248.118637,93.976936 
	C247.982513,94.255257 247.814621,94.512856 247.402344,94.839790 
	C247.214554,94.075790 247.239349,93.221741 247.610596,92.532959 
	C248.010895,93.124466 248.064774,93.550705 248.118637,93.976936 
z"/>
<path fill="#F7A5A8" opacity="1.000000" stroke="none" 
	d="
M25.673077,105.880524 
	C26.025007,106.740883 26.036755,107.505295 26.085354,108.650948 
	C25.934261,109.080292 25.746315,109.128387 25.272011,109.230858 
	C24.961628,108.430679 24.937605,107.576126 24.775627,106.317078 
	C24.869415,105.869919 25.101154,105.827240 25.673077,105.880524 
z"/>
<path fill="#7D92A0" opacity="1.000000" stroke="none" 
	d="
M92.316574,90.526215 
	C92.643265,91.000572 92.763924,91.714401 92.884575,92.428223 
	C92.686760,92.455498 92.488945,92.482773 92.291130,92.510048 
	C92.230934,91.928589 92.170738,91.347137 92.316574,90.526215 
z"/>
<path fill="#F8B1B3" opacity="1.000000" stroke="none" 
	d="
M19.985786,105.979324 
	C19.985786,106.759003 19.985786,107.538681 19.985786,108.318359 
	C19.729918,108.304459 19.474047,108.290558 19.218178,108.276657 
	C19.291565,107.603500 19.364952,106.930344 19.716522,106.130417 
	C19.994707,106.003639 19.985786,105.979324 19.985786,105.979324 
z"/>
<path fill="#F7A5A8" opacity="1.000000" stroke="none" 
	d="
M22.927517,105.847458 
	C23.139389,106.763115 23.116318,107.594772 23.050859,108.843956 
	C22.651978,108.451538 22.295483,107.641594 21.995644,106.383461 
	C22.052299,105.935272 22.193596,105.769234 22.193596,105.769234 
	C22.193596,105.769234 22.692575,105.763458 22.927517,105.847458 
z"/>
<path fill="#E1E6E9" opacity="1.000000" stroke="none" 
	d="
M68.380569,82.682037 
	C68.568047,82.826408 68.598633,83.081726 68.629219,83.337036 
	C68.494041,83.155685 68.358864,82.974327 68.380569,82.682037 
z"/>
<path fill="#F7A5A8" opacity="1.000000" stroke="none" 
	d="
M27.981915,106.113907 
	C27.598974,106.313225 27.142096,106.181961 26.328434,106.030296 
	C26.617094,105.934372 27.262535,105.858849 27.981915,106.113907 
z"/>
<path fill="#F7A5A8" opacity="1.000000" stroke="none" 
	d="
M20.006264,106.009186 
	C20.613504,105.793343 21.209187,105.571960 21.999233,105.559906 
	C22.193596,105.769234 22.052299,105.935272 21.979095,106.017151 
	C21.479815,106.068947 21.053738,106.038864 20.306725,105.994049 
	C19.985786,105.979324 19.994707,106.003639 20.006264,106.009186 
z"/>
<path fill="#FCDBDC" opacity="1.000000" stroke="none" 
	d="
M208.622040,105.153442 
	C208.493439,105.492241 208.425812,105.439247 208.281860,105.022537 
	C208.096054,104.066414 208.054184,103.526993 208.012299,102.987572 
	C208.012299,102.987572 208.002472,102.997429 207.996094,103.001854 
	C208.243362,103.609062 208.496994,104.211853 208.622040,105.153442 
z"/>
<path fill="#7D92A0" opacity="1.000000" stroke="none" 
	d="
M100.907143,89.762863 
	C100.627670,89.964096 100.362717,89.877037 100.097771,89.789970 
	C100.372406,89.684837 100.647034,89.579704 100.907143,89.762863 
z"/>
<path fill="#F6F8F9" opacity="1.000000" stroke="none" 
	d="
M248.324661,93.986046 
	C248.064774,93.550705 248.010895,93.124466 247.902023,92.380890 
	C248.029572,92.046524 248.212112,92.029510 248.667999,92.004028 
	C248.956772,92.433662 248.972183,92.871780 248.964752,93.636902 
	C248.941940,93.963913 248.530685,93.995155 248.324661,93.986046 
z"/>
<path fill="#FFFEFE" opacity="1.000000" stroke="none" 
	d="
M207.674576,102.993561 
	C208.054184,103.526993 208.096054,104.066414 208.242493,105.005341 
	C208.347061,105.404846 208.249695,105.460144 208.211014,105.480820 
	C207.494949,104.955322 206.817566,104.409142 206.063400,103.425064 
	C206.436691,102.991295 206.886780,102.995422 207.674576,102.993561 
z"/>
</svg>